<svg width="30" height="30" viewBox="0 0 30 30" fill="none" xmlns="http://www.w3.org/2000/svg">
<path d="M21.7209 0H8.27874C3.71384 0 0 3.71402 0 8.27892V21.7211C0 26.2862 3.71384 30 8.27874 30H21.7209C26.2862 30 30 26.286 30 21.7211V8.27892C30.0002 3.71402 26.2862 0 21.7209 0ZM27.3384 21.7211C27.3384 24.8185 24.8185 27.3383 21.7211 27.3383H8.27874C5.18153 27.3384 2.66175 24.8185 2.66175 21.7211V8.27892C2.66175 5.18171 5.18153 2.66175 8.27874 2.66175H21.7209C24.8183 2.66175 27.3383 5.18171 27.3383 8.27892V21.7211H27.3384Z" fill="#21243D"/>
<path d="M14.9998 7.26953C10.7373 7.26953 7.26953 10.7373 7.26953 14.9998C7.26953 19.2621 10.7373 22.7297 14.9998 22.7297C19.2623 22.7297 22.73 19.2621 22.73 14.9998C22.73 10.7373 19.2623 7.26953 14.9998 7.26953ZM14.9998 20.0677C12.2051 20.0677 9.93128 17.7942 9.93128 14.9996C9.93128 12.2048 12.2049 9.9311 14.9998 9.9311C17.7946 9.9311 20.0683 12.2048 20.0683 14.9996C20.0683 17.7942 17.7944 20.0677 14.9998 20.0677Z" fill="#21243D"/>
<path d="M23.0545 5.01367C22.5417 5.01367 22.0379 5.22129 21.6757 5.58506C21.3118 5.94706 21.1025 6.45101 21.1025 6.96562C21.1025 7.47863 21.3119 7.9824 21.6757 8.34618C22.0377 8.70817 22.5417 8.91757 23.0545 8.91757C23.5691 8.91757 24.0713 8.70817 24.435 8.34618C24.7988 7.9824 25.0064 7.47845 25.0064 6.96562C25.0064 6.45101 24.7988 5.94706 24.435 5.58506C24.073 5.22129 23.5691 5.01367 23.0545 5.01367Z" fill="#21243D"/>
</svg>
